<?xml version="1.0" encoding="UTF-8"?>
<svg id="uuid-ed39de4b-54ca-4d86-aa19-db108c090e13" data-name="Layer 1" xmlns="http://www.w3.org/2000/svg" xmlns:xlink="http://www.w3.org/1999/xlink" viewBox="0 0 1204.72 850.39">
  <defs>
    <style>
      .uuid-0686b080-feca-4eeb-ac1f-7f28270fbb09 {
        fill: url(#uuid-8c15af38-ba1b-4a9c-86f2-a8212f86cca3);
      }

      .uuid-0686b080-feca-4eeb-ac1f-7f28270fbb09, .uuid-8713d0c5-7d80-4762-ae0a-90f53f5c4f38, .uuid-f247b9fa-2d06-4d4f-b020-2ef193ed1544 {
        stroke-width: 0px;
      }

      .uuid-0686b080-feca-4eeb-ac1f-7f28270fbb09, .uuid-f247b9fa-2d06-4d4f-b020-2ef193ed1544 {
        fill-rule: evenodd;
      }

      .uuid-8713d0c5-7d80-4762-ae0a-90f53f5c4f38 {
        fill: #fff;
      }

      .uuid-f247b9fa-2d06-4d4f-b020-2ef193ed1544 {
        fill: #a7a9ac;
      }
    </style>
    <radialGradient id="uuid-8c15af38-ba1b-4a9c-86f2-a8212f86cca3" data-name="GradientFill 1" cx="498.41" cy="420.82" fx="498.41" fy="420.82" r="222.06" gradientUnits="userSpaceOnUse">
      <stop offset="0" stop-color="#ed1c24"/>
      <stop offset="1" stop-color="#c33233"/>
    </radialGradient>
  </defs>
  <rect class="uuid-8713d0c5-7d80-4762-ae0a-90f53f5c4f38" x="0" y="0" width="1204.72" height="850.39"/>
  <g>
    <path class="uuid-f247b9fa-2d06-4d4f-b020-2ef193ed1544" d="m508.36,225.29c17.35,1.65,33.85,8.84,50.11,17.59-19.29,16.02-38.57,32.04-57.85,48.06-23.47-47.19-19.31-67.53,7.74-65.64Z"/>
    <path class="uuid-0686b080-feca-4eeb-ac1f-7f28270fbb09" d="m425.04,266.34c-10.81,9.78-21.61,19.56-32.42,29.33-18.95,30.99,3.96,78.08,38.6,129.68-44.65,67.16-51.08,103.18-40.14,125.05,10.81,11.58,21.61,23.16,32.42,34.74-18.4-38.46,4.76-94.04,56.35-161.33-55.16-69.44-75.81-123.02-54.81-157.47h0Zm51.25-52.03c-21.41,35.8,3.57,79.12,27.84,122.32,53.27-50.87,143.4-144.84,225.93-128.26,12.48,11.26,24.95,22.52,37.43,33.78-58.15-26.33-136.5,36.23-179.76,71.81-32.07,26.37-60.6,54.12-89.53,85.66-41.02-53.65-66.1-100.57-57.71-146.16,9.43-14.39,23.04-28.65,35.8-39.15h0Zm41.48,209.85c36.79,43.27,75,80.11,114.76,110.04,42.5,31.98,90.14,62.4,145.83,58.58,12.32-12.02,24.64-24.05,36.97-36.07-53.59,17.44-106.19-17.04-148.17-46.47-36.01-25.25-67.31-53.65-92.57-86.07,18.63-26.46,45.37-51.45,78.39-75.3,47.45-34.28,104.36-73.75,165.96-58.15-13.23-11.72-26.45-23.44-39.67-35.17-56.28-2.36-103.3,27.24-146.49,59.48-45.1,33.67-81.53,70.81-115,109.13h0Zm-41.48,211.93c-12.76-10.5-26.37-24.76-35.8-39.15-8.39-45.58,16.68-92.51,57.71-146.16,28.93,31.55,57.46,59.3,89.53,85.66,43.26,35.57,121.61,98.14,179.76,71.8-12.48,11.26-24.95,22.52-37.43,33.78-82.54,16.58-172.66-77.39-225.93-128.26-24.27,43.2-49.25,86.53-27.84,122.32Z"/>
    <path class="uuid-f247b9fa-2d06-4d4f-b020-2ef193ed1544" d="m508.36,625.1c17.35-1.65,33.85-8.84,50.11-17.59-19.29-16.02-38.57-32.04-57.85-48.06-23.47,47.19-19.31,67.53,7.74,65.64Z"/>
  </g>
</svg>